<?xml version="1.0" encoding="utf-8"?>
<!-- Svg Vector Icons : http://www.onlinewebfonts.com/icon -->
<!DOCTYPE svg PUBLIC "-//W3C//DTD SVG 1.1//EN" "http://www.w3.org/Graphics/SVG/1.1/DTD/svg11.dtd">
<svg version="1.1" xmlns="http://www.w3.org/2000/svg" xmlns:xlink="http://www.w3.org/1999/xlink" x="0px" y="0px" viewBox="0 0 1000 1000" enable-background="new 0 0 1000 1000" xml:space="preserve">
<metadata> Svg Vector Icons : http://www.onlinewebfonts.com/icon </metadata>
<g><g transform="translate(0.000000,511.000000) scale(0.100000,-0.100000)">
<path d="M4792.4,4304c-615.8-96.4-1172.6-517.4-1469.7-1111.6c-291.2-578.4-308.9-1314.3-49.2-1916.3c230.2-529.3,686.7-958.2,1204.1-1133.3c348.2-118.1,794.9-120,1151-5.9c834.2,265.6,1416.6,1113.6,1416.6,2058c0,964.1-625.7,1823.9-1501.2,2061.9C5339.4,4311.8,4989.2,4333.5,4792.4,4304z"/><path d="M2392.1,3977.4c-558.8-118-968-482-1149-1023.1c-147.6-436.8-116.1-883.4,90.5-1296.6c293.1-588.3,936.5-916.9,1548.4-789c88.5,19.7,175.1,43.3,188.9,51.2c21.6,13.8,11.8,49.2-43.3,171.2c-169.2,367.9-238.1,694.5-238.1,1107.7c2,531.2,147.6,1003.4,438.7,1426.4c55.1,76.7,98.4,147.6,98.4,155.4c0,27.5-289.2,149.5-423,179C2777.7,3985.2,2484.6,3995.1,2392.1,3977.4z"/><path d="M7125.9,3949.8c-80.7-21.7-192.8-61-249.9-86.6l-106.3-49.2l104.3-145.6c210.5-293.2,371.9-680.8,436.8-1044.7c39.4-226.3,37.4-641.4-2-879.5c-37.4-218.4-116.1-468.3-216.4-676.8c-37.4-82.6-66.9-155.4-61-159.4c3.9-3.9,72.8-23.6,153.5-39.3c434.8-92.5,920.8,55.1,1253.3,383.7c460.4,452.5,604,1172.6,356.1,1788.4c-151.5,381.7-460.4,700.4-810.6,844.1C7714.1,3995.1,7391.5,4018.7,7125.9,3949.8z"/><path d="M1007,632.6c-70.8-13.8-192.8-57.1-273.5-96.4C540.7,445.7,312.5,219.5,222,34.5C107.9-199.6,100-272.4,100-1287.6v-920.8h637.5h637.5l7.9,407.3c9.8,371.9,15.7,425,63,586.3C1634.6-591.1,2122.6-113,2752.2,58.1c125.9,35.4,230.2,43.3,621.7,53.1l472.2,11.8l-118,88.5c-63,47.2-177.1,151.5-253.8,228.2l-137.7,141.7l-177.1-61c-173.1-61-184.9-61-541.1-63c-411.2,0-525.3,21.6-747.6,139.7l-125.9,66.9l-306.9-2C1256.9,662.2,1081.8,650.4,1007,632.6z"/><path d="M8186.3,595.3c-185-98.4-326.6-129.9-635.5-141.7c-293.2-11.8-507.6,11.8-672.9,74.8l-98.4,37.4l-157.4-155.4c-86.6-84.6-198.7-186.9-249.9-224.3l-92.5-68.9l446.6-9.8c509.6-9.8,607.9-29.5,918.8-181c456.5-222.3,792.9-627.6,946.4-1141.1c47.2-161.3,53.1-214.4,63-584.3l7.9-409.2h619.8H9900l-5.9,989.6l-5.9,987.7l-51.1,129.9c-27.6,72.8-74.8,173.1-106.3,226.3c-78.7,135.8-273.5,320.7-417.1,397.4c-212.5,112.1-279.4,125.9-655.2,133.8l-344.3,5.9L8186.3,595.3z"/><path d="M2943-211.4c-334.5-61-554.8-181-816.5-442.7c-161.3-159.4-202.6-214.4-279.4-373.8c-169.2-342.3-159.4-253.8-167.2-1747.1l-7.9-1322.1h3346.7h3344.7v1255.2c-2,1351.7-5.9,1418.6-106.3,1684.2c-167.2,440.7-539.1,783.1-999.5,918.8c-122,35.4-208.5,43.3-578.4,51.1l-432.9,9.8L6089-256.7C5772.2-414.1,5481.1-477,5058-477c-151.5,0-344.3,13.8-436.8,29.5c-198.7,33.4-476.1,127.9-617.8,208.6l-100.3,57l-411.2-2C3246-183.9,3025.6-195.7,2943-211.4z"/></g></g>
</svg>